<svg width="206" height="22" viewBox="0 0 206 22" fill="none" xmlns="http://www.w3.org/2000/svg">
<path d="M6.348 17.22C4.48533 17.22 3.06267 16.5967 2.08 15.35C1.112 14.1033 0.628 12.4313 0.628 10.334V8.684C0.628 7.30533 0.833333 6.10267 1.244 5.076C1.66933 4.04933 2.29267 3.25 3.114 2.678C3.93533 2.106 4.94 1.82 6.128 1.82C7.228 1.82 8.13733 2.04 8.856 2.48C9.57467 2.90533 10.0953 3.47 10.418 4.174C10.7407 4.86333 10.8433 5.61867 10.726 6.44L8.834 6.902C8.99533 5.494 8.834 4.416 8.35 3.668C7.866 2.90533 7.12533 2.524 6.128 2.524C5.01333 2.524 4.16267 2.92 3.576 3.712C3.004 4.504 2.718 5.79467 2.718 7.584V11.434C2.718 13.238 3.026 14.536 3.642 15.328C4.258 16.12 5.17467 16.516 6.392 16.516C6.876 16.516 7.338 16.4353 7.778 16.274C8.218 16.098 8.592 15.8047 8.9 15.394C9.208 14.9833 9.39867 14.4113 9.472 13.678L10.836 14.03C10.5133 15.2033 9.94133 16.032 9.12 16.516C8.31333 16.9853 7.38933 17.22 6.348 17.22ZM31.4947 11.324V11.764C31.4947 13.4213 31.0767 14.7487 30.2407 15.746C29.4194 16.7287 28.246 17.22 26.7207 17.22C25.21 17.22 24.0367 16.7287 23.2007 15.746C22.3794 14.7487 21.9687 13.4213 21.9687 11.764V11.324C21.9687 9.68133 22.3794 8.36867 23.2007 7.386C24.022 6.38867 25.1954 5.89 26.7207 5.89C28.246 5.89 29.4194 6.38867 30.2407 7.386C31.0767 8.36867 31.4947 9.68133 31.4947 11.324ZM29.5147 10.884C29.5147 9.35867 29.2727 8.266 28.7887 7.606C28.3194 6.93133 27.63 6.594 26.7207 6.594C25.826 6.594 25.1367 6.93133 24.6527 7.606C24.1834 8.266 23.9487 9.35867 23.9487 10.884V12.204C23.9487 13.744 24.1834 14.8513 24.6527 15.526C25.1367 16.186 25.826 16.516 26.7207 16.516C27.63 16.516 28.3194 16.186 28.7887 15.526C29.2727 14.8513 29.5147 13.744 29.5147 12.204V10.884ZM54.4988 16.428V17H49.3068V16.428L50.5168 16.296C50.7514 16.2667 50.8908 16.208 50.9348 16.12C50.9788 16.032 51.0008 15.7313 51.0008 15.218V9.74C51.0008 8.65467 50.8321 7.892 50.4948 7.452C50.1721 6.99733 49.6954 6.77 49.0648 6.77C48.6101 6.77 48.0968 6.91667 47.5248 7.21C46.9674 7.50333 46.4321 8.068 45.9188 8.904V15.218C45.9188 15.7313 45.9408 16.032 45.9848 16.12C46.0288 16.208 46.1681 16.2667 46.4028 16.296L47.6128 16.428V17H42.4208V16.428L43.6308 16.296C43.8654 16.2667 44.0048 16.208 44.0488 16.12C44.0928 16.032 44.1148 15.7313 44.1148 15.218V7.892C44.1148 7.37867 44.0928 7.078 44.0488 6.99C44.0048 6.902 43.8654 6.84333 43.6308 6.814L42.4208 6.704V6.11H45.8088V7.892C46.3221 7.20267 46.9014 6.69667 47.5468 6.374C48.2068 6.05133 48.8594 5.89 49.5048 5.89C51.0888 5.89 52.1081 6.616 52.5628 8.068C53.1054 7.30533 53.7068 6.75533 54.3668 6.418C55.0414 6.066 55.7161 5.89 56.3908 5.89C57.4321 5.89 58.2388 6.22733 58.8108 6.902C59.3974 7.562 59.6908 8.50067 59.6908 9.718V15.218C59.6908 15.7313 59.7128 16.032 59.7568 16.12C59.8008 16.208 59.9401 16.2667 60.1748 16.296L61.3848 16.428V17H56.1928V16.428L57.4028 16.296C57.6374 16.2667 57.7768 16.208 57.8208 16.12C57.8648 16.032 57.8868 15.7313 57.8868 15.218V9.74C57.8868 8.65467 57.7181 7.892 57.3808 7.452C57.0581 6.99733 56.5814 6.77 55.9508 6.77C55.4961 6.77 54.9754 6.924 54.3888 7.232C53.8168 7.52533 53.2741 8.10467 52.7608 8.97C52.7754 9.08733 52.7828 9.212 52.7828 9.344C52.7974 9.46133 52.8048 9.586 52.8048 9.718V15.218C52.8048 15.7313 52.8268 16.032 52.8708 16.12C52.9148 16.208 53.0541 16.2667 53.2888 16.296L54.4988 16.428ZM77.0911 16.428V17H71.4591V16.428L72.6691 16.296C72.9037 16.2667 73.0431 16.208 73.0871 16.12C73.1311 16.032 73.1531 15.7313 73.1531 15.218V7.892C73.1531 7.37867 73.1311 7.078 73.0871 6.99C73.0577 6.902 72.9184 6.84333 72.6691 6.814L71.4591 6.704V6.11H73.1531V4.526C73.1531 3.83667 73.2557 3.184 73.4611 2.568C73.6811 1.952 74.0551 1.45333 74.5831 1.072C75.1111 0.690666 75.8371 0.499999 76.7611 0.499999C77.9784 0.499999 78.8804 0.829999 79.4671 1.49C80.0537 2.15 80.2664 2.95667 80.1051 3.91L78.3891 4.152C78.5211 3.14 78.4477 2.39933 78.1691 1.93C77.9051 1.446 77.4357 1.204 76.7611 1.204C76.3797 1.204 76.0497 1.292 75.7711 1.468C75.5071 1.62933 75.3017 1.93 75.1551 2.37C75.0231 2.79533 74.9571 3.41133 74.9571 4.218V6.11H78.4551V6.814H74.9571V15.218C74.9571 15.7313 74.9791 16.0393 75.0231 16.142C75.0671 16.23 75.2064 16.2813 75.4411 16.296L77.0911 16.428ZM93.5338 18.1C93.2112 18.9947 92.8592 19.7207 92.4778 20.278C92.0965 20.85 91.6418 21.2607 91.1138 21.51C90.5858 21.774 89.9258 21.906 89.1338 21.906V20.146C90.1898 20.146 90.9892 19.9773 91.5318 19.64C92.0745 19.3173 92.5072 18.7087 92.8298 17.814L93.1158 17H92.4778L89.2438 7.76C89.0972 7.33467 88.9872 7.08533 88.9138 7.012C88.8405 6.924 88.6865 6.86533 88.4518 6.836L87.3298 6.704V6.11H92.3458V6.704L91.2238 6.836C91.0185 6.85067 90.9012 6.902 90.8718 6.99C90.8425 7.078 90.9012 7.33467 91.0478 7.76L93.6878 15.372L96.3498 7.738C96.4818 7.31267 96.5332 7.06333 96.5038 6.99C96.4892 6.91667 96.3718 6.86533 96.1518 6.836L95.0078 6.704V6.11H99.0338V6.704L97.9118 6.836C97.6918 6.86533 97.5452 6.91667 97.4718 6.99C97.3985 7.06333 97.2885 7.31267 97.1418 7.738L93.5338 18.1Z" fill="black"/>
<path d="M122.713 16.428V17H117.411V16.428L118.621 16.296C118.856 16.2667 118.995 16.208 119.039 16.12C119.083 16.032 119.105 15.7313 119.105 15.218V9.806H112.461V15.218C112.461 15.7313 112.483 16.032 112.527 16.12C112.571 16.208 112.71 16.2667 112.945 16.296L114.155 16.428V17H108.853V16.428L110.063 16.296C110.298 16.2667 110.437 16.208 110.481 16.12C110.525 16.032 110.547 15.7313 110.547 15.218V3.822C110.547 3.30867 110.525 3.008 110.481 2.92C110.437 2.832 110.298 2.77333 110.063 2.744L108.853 2.634V2.04H114.155V2.634L112.945 2.744C112.71 2.77333 112.571 2.832 112.527 2.92C112.483 3.008 112.461 3.30867 112.461 3.822V9.102H119.105V3.822C119.105 3.30867 119.083 3.008 119.039 2.92C118.995 2.832 118.856 2.77333 118.621 2.744L117.411 2.634V2.04H122.713V2.634L121.503 2.744C121.268 2.77333 121.129 2.832 121.085 2.92C121.041 3.008 121.019 3.30867 121.019 3.822V15.218C121.019 15.7313 121.041 16.032 121.085 16.12C121.129 16.208 121.268 16.2667 121.503 16.296L122.713 16.428ZM143.45 11.324V11.764C143.45 13.4213 143.032 14.7487 142.196 15.746C141.374 16.7287 140.201 17.22 138.676 17.22C137.165 17.22 135.992 16.7287 135.156 15.746C134.334 14.7487 133.924 13.4213 133.924 11.764V11.324C133.924 9.68133 134.334 8.36867 135.156 7.386C135.977 6.38867 137.15 5.89 138.676 5.89C140.201 5.89 141.374 6.38867 142.196 7.386C143.032 8.36867 143.45 9.68133 143.45 11.324ZM141.47 10.884C141.47 9.35867 141.228 8.266 140.744 7.606C140.274 6.93133 139.585 6.594 138.676 6.594C137.781 6.594 137.092 6.93133 136.608 7.606C136.138 8.266 135.904 9.35867 135.904 10.884V12.204C135.904 13.744 136.138 14.8513 136.608 15.526C137.092 16.186 137.781 16.516 138.676 16.516C139.585 16.516 140.274 16.186 140.744 15.526C141.228 14.8513 141.47 13.744 141.47 12.204V10.884ZM166.146 16.428V17H162.758V15.24C162.245 15.9293 161.658 16.4353 160.998 16.758C160.353 17.066 159.707 17.22 159.062 17.22C158.021 17.22 157.207 16.89 156.62 16.23C156.048 15.5553 155.762 14.6093 155.762 13.392V7.892C155.762 7.37867 155.74 7.078 155.696 6.99C155.652 6.902 155.513 6.84333 155.278 6.814L154.068 6.704V6.11H157.566V13.37C157.566 14.4553 157.727 15.2253 158.05 15.68C158.387 16.12 158.871 16.34 159.502 16.34C159.971 16.34 160.485 16.1933 161.042 15.9C161.614 15.6067 162.149 15.042 162.648 14.206V7.892C162.648 7.37867 162.626 7.078 162.582 6.99C162.538 6.88733 162.399 6.82867 162.164 6.814L160.514 6.704V6.11H164.452V15.218C164.452 15.7313 164.474 16.032 164.518 16.12C164.562 16.208 164.701 16.2667 164.936 16.296L166.146 16.428ZM180.988 12.556L179.646 12.226C177.812 11.7567 176.896 10.7007 176.896 9.058C176.896 8.51533 177.02 8.002 177.27 7.518C177.519 7.034 177.915 6.64533 178.458 6.352C179.015 6.044 179.726 5.89 180.592 5.89C181.56 5.89 182.337 6.05133 182.924 6.374C183.51 6.69667 183.921 7.11467 184.156 7.628C184.39 8.14133 184.464 8.69867 184.376 9.3L182.66 9.608C182.836 8.65467 182.733 7.914 182.352 7.386C181.985 6.858 181.376 6.594 180.526 6.594C179.866 6.594 179.338 6.76267 178.942 7.1C178.546 7.42267 178.348 7.89933 178.348 8.53C178.348 8.99933 178.494 9.41733 178.788 9.784C179.081 10.136 179.572 10.4 180.262 10.576L181.648 10.906C182.616 11.1407 183.364 11.5147 183.892 12.028C184.434 12.5413 184.706 13.216 184.706 14.052C184.706 14.9907 184.361 15.7533 183.672 16.34C182.997 16.9267 182.029 17.22 180.768 17.22C180.166 17.22 179.58 17.132 179.008 16.956C178.45 16.7653 177.959 16.472 177.534 16.076C177.123 15.6653 176.822 15.1373 176.632 14.492L177.864 14.052C178.025 14.976 178.377 15.6213 178.92 15.988C179.462 16.3547 180.086 16.538 180.79 16.538C181.2 16.538 181.589 16.472 181.956 16.34C182.337 16.208 182.645 16.0027 182.88 15.724C183.114 15.4307 183.232 15.0567 183.232 14.602C183.232 14.1327 183.07 13.7293 182.748 13.392C182.425 13.0547 181.838 12.776 180.988 12.556ZM204.938 14.492C204.674 15.4893 204.175 16.1933 203.442 16.604C202.723 17.0147 201.924 17.22 201.044 17.22C199.416 17.22 198.198 16.7287 197.392 15.746C196.585 14.7487 196.182 13.4213 196.182 11.764V11.324C196.182 9.68133 196.57 8.36867 197.348 7.386C198.125 6.38867 199.254 5.89 200.736 5.89C201.528 5.89 202.246 6.05133 202.892 6.374C203.552 6.69667 204.072 7.17333 204.454 7.804C204.85 8.43467 205.048 9.21933 205.048 10.158C205.048 10.598 205.004 11.06 204.916 11.544H198.162V12.204C198.162 13.744 198.396 14.8513 198.866 15.526C199.35 16.186 200.127 16.516 201.198 16.516C201.872 16.516 202.43 16.34 202.87 15.988C203.324 15.636 203.625 15.0273 203.772 14.162L204.938 14.492ZM200.736 6.594C199.87 6.594 199.225 6.924 198.8 7.584C198.374 8.244 198.162 9.32933 198.162 10.84H203.112V10.774C203.141 10.5833 203.163 10.4 203.178 10.224C203.192 10.0333 203.2 9.86467 203.2 9.718C203.2 8.618 202.972 7.826 202.518 7.342C202.063 6.84333 201.469 6.594 200.736 6.594Z" fill="#519EF0"/>
</svg>
